<mxfile host="Electron" agent="Mozilla/5.0 (Windows NT 10.0; Win64; x64) AppleWebKit/537.36 (KHTML, like Gecko) draw.io/27.0.5 Chrome/134.0.6998.205 Electron/35.3.0 Safari/537.36" version="27.0.5">
  <diagram name="Page-1" id="UQfQ47-jhMwPksH4_KgC">
    <mxGraphModel dx="983" dy="580" grid="1" gridSize="10" guides="1" tooltips="1" connect="1" arrows="1" fold="1" page="1" pageScale="1" pageWidth="850" pageHeight="1100" math="0" shadow="0">
      <root>
        <mxCell id="0" />
        <mxCell id="1" parent="0" />
        <mxCell id="B39e2irpNSdgIR0bb-Y_-1" value="BEUsuario391IAU" style="shape=table;startSize=25;container=1;collapsible=0;childLayout=tableLayout;fixedRows=1;rowLines=1;fontStyle=1;align=center;resizeLast=1;" vertex="1" parent="1">
          <mxGeometry x="20" y="20" width="214" height="342" as="geometry" />
        </mxCell>
        <mxCell id="B39e2irpNSdgIR0bb-Y_-2" style="shape=tableRow;horizontal=0;startSize=0;swimlaneHead=0;swimlaneBody=0;fillColor=none;collapsible=0;dropTarget=0;points=[[0,0.5],[1,0.5]];portConstraint=eastwest;top=0;left=0;right=0;bottom=0;" vertex="1" parent="B39e2irpNSdgIR0bb-Y_-1">
          <mxGeometry y="25" width="214" height="45" as="geometry" />
        </mxCell>
        <mxCell id="B39e2irpNSdgIR0bb-Y_-3" value="int" style="shape=partialRectangle;connectable=0;fillColor=none;top=0;left=0;bottom=0;right=0;align=left;spacingLeft=2;overflow=hidden;fontSize=11;" vertex="1" parent="B39e2irpNSdgIR0bb-Y_-2">
          <mxGeometry width="36" height="45" as="geometry">
            <mxRectangle width="36" height="45" as="alternateBounds" />
          </mxGeometry>
        </mxCell>
        <mxCell id="B39e2irpNSdgIR0bb-Y_-4" value="DNI" style="shape=partialRectangle;connectable=0;fillColor=none;top=0;left=0;bottom=0;right=0;align=left;spacingLeft=2;overflow=hidden;fontSize=11;" vertex="1" parent="B39e2irpNSdgIR0bb-Y_-2">
          <mxGeometry x="36" width="156" height="45" as="geometry">
            <mxRectangle width="156" height="45" as="alternateBounds" />
          </mxGeometry>
        </mxCell>
        <mxCell id="B39e2irpNSdgIR0bb-Y_-5" value="PK" style="shape=partialRectangle;connectable=0;fillColor=none;top=0;left=0;bottom=0;right=0;align=left;spacingLeft=2;overflow=hidden;fontSize=11;" vertex="1" parent="B39e2irpNSdgIR0bb-Y_-2">
          <mxGeometry x="192" width="22" height="45" as="geometry">
            <mxRectangle width="22" height="45" as="alternateBounds" />
          </mxGeometry>
        </mxCell>
        <mxCell id="B39e2irpNSdgIR0bb-Y_-6" style="shape=tableRow;horizontal=0;startSize=0;swimlaneHead=0;swimlaneBody=0;fillColor=none;collapsible=0;dropTarget=0;points=[[0,0.5],[1,0.5]];portConstraint=eastwest;top=0;left=0;right=0;bottom=0;" vertex="1" parent="B39e2irpNSdgIR0bb-Y_-1">
          <mxGeometry y="70" width="214" height="45" as="geometry" />
        </mxCell>
        <mxCell id="B39e2irpNSdgIR0bb-Y_-7" value="string" style="shape=partialRectangle;connectable=0;fillColor=none;top=0;left=0;bottom=0;right=0;align=left;spacingLeft=2;overflow=hidden;fontSize=11;" vertex="1" parent="B39e2irpNSdgIR0bb-Y_-6">
          <mxGeometry width="36" height="45" as="geometry">
            <mxRectangle width="36" height="45" as="alternateBounds" />
          </mxGeometry>
        </mxCell>
        <mxCell id="B39e2irpNSdgIR0bb-Y_-8" value="Nombre" style="shape=partialRectangle;connectable=0;fillColor=none;top=0;left=0;bottom=0;right=0;align=left;spacingLeft=2;overflow=hidden;fontSize=11;" vertex="1" parent="B39e2irpNSdgIR0bb-Y_-6">
          <mxGeometry x="36" width="156" height="45" as="geometry">
            <mxRectangle width="156" height="45" as="alternateBounds" />
          </mxGeometry>
        </mxCell>
        <mxCell id="B39e2irpNSdgIR0bb-Y_-9" value="" style="shape=partialRectangle;connectable=0;fillColor=none;top=0;left=0;bottom=0;right=0;align=left;spacingLeft=2;overflow=hidden;fontSize=11;" vertex="1" parent="B39e2irpNSdgIR0bb-Y_-6">
          <mxGeometry x="192" width="22" height="45" as="geometry">
            <mxRectangle width="22" height="45" as="alternateBounds" />
          </mxGeometry>
        </mxCell>
        <mxCell id="B39e2irpNSdgIR0bb-Y_-10" style="shape=tableRow;horizontal=0;startSize=0;swimlaneHead=0;swimlaneBody=0;fillColor=none;collapsible=0;dropTarget=0;points=[[0,0.5],[1,0.5]];portConstraint=eastwest;top=0;left=0;right=0;bottom=0;" vertex="1" parent="B39e2irpNSdgIR0bb-Y_-1">
          <mxGeometry y="115" width="214" height="45" as="geometry" />
        </mxCell>
        <mxCell id="B39e2irpNSdgIR0bb-Y_-11" value="string" style="shape=partialRectangle;connectable=0;fillColor=none;top=0;left=0;bottom=0;right=0;align=left;spacingLeft=2;overflow=hidden;fontSize=11;" vertex="1" parent="B39e2irpNSdgIR0bb-Y_-10">
          <mxGeometry width="36" height="45" as="geometry">
            <mxRectangle width="36" height="45" as="alternateBounds" />
          </mxGeometry>
        </mxCell>
        <mxCell id="B39e2irpNSdgIR0bb-Y_-12" value="Apellido" style="shape=partialRectangle;connectable=0;fillColor=none;top=0;left=0;bottom=0;right=0;align=left;spacingLeft=2;overflow=hidden;fontSize=11;" vertex="1" parent="B39e2irpNSdgIR0bb-Y_-10">
          <mxGeometry x="36" width="156" height="45" as="geometry">
            <mxRectangle width="156" height="45" as="alternateBounds" />
          </mxGeometry>
        </mxCell>
        <mxCell id="B39e2irpNSdgIR0bb-Y_-13" value="" style="shape=partialRectangle;connectable=0;fillColor=none;top=0;left=0;bottom=0;right=0;align=left;spacingLeft=2;overflow=hidden;fontSize=11;" vertex="1" parent="B39e2irpNSdgIR0bb-Y_-10">
          <mxGeometry x="192" width="22" height="45" as="geometry">
            <mxRectangle width="22" height="45" as="alternateBounds" />
          </mxGeometry>
        </mxCell>
        <mxCell id="B39e2irpNSdgIR0bb-Y_-14" style="shape=tableRow;horizontal=0;startSize=0;swimlaneHead=0;swimlaneBody=0;fillColor=none;collapsible=0;dropTarget=0;points=[[0,0.5],[1,0.5]];portConstraint=eastwest;top=0;left=0;right=0;bottom=0;" vertex="1" parent="B39e2irpNSdgIR0bb-Y_-1">
          <mxGeometry y="160" width="214" height="45" as="geometry" />
        </mxCell>
        <mxCell id="B39e2irpNSdgIR0bb-Y_-15" value="string" style="shape=partialRectangle;connectable=0;fillColor=none;top=0;left=0;bottom=0;right=0;align=left;spacingLeft=2;overflow=hidden;fontSize=11;" vertex="1" parent="B39e2irpNSdgIR0bb-Y_-14">
          <mxGeometry width="36" height="45" as="geometry">
            <mxRectangle width="36" height="45" as="alternateBounds" />
          </mxGeometry>
        </mxCell>
        <mxCell id="B39e2irpNSdgIR0bb-Y_-16" value="eMail" style="shape=partialRectangle;connectable=0;fillColor=none;top=0;left=0;bottom=0;right=0;align=left;spacingLeft=2;overflow=hidden;fontSize=11;" vertex="1" parent="B39e2irpNSdgIR0bb-Y_-14">
          <mxGeometry x="36" width="156" height="45" as="geometry">
            <mxRectangle width="156" height="45" as="alternateBounds" />
          </mxGeometry>
        </mxCell>
        <mxCell id="B39e2irpNSdgIR0bb-Y_-17" value="" style="shape=partialRectangle;connectable=0;fillColor=none;top=0;left=0;bottom=0;right=0;align=left;spacingLeft=2;overflow=hidden;fontSize=11;" vertex="1" parent="B39e2irpNSdgIR0bb-Y_-14">
          <mxGeometry x="192" width="22" height="45" as="geometry">
            <mxRectangle width="22" height="45" as="alternateBounds" />
          </mxGeometry>
        </mxCell>
        <mxCell id="B39e2irpNSdgIR0bb-Y_-18" style="shape=tableRow;horizontal=0;startSize=0;swimlaneHead=0;swimlaneBody=0;fillColor=none;collapsible=0;dropTarget=0;points=[[0,0.5],[1,0.5]];portConstraint=eastwest;top=0;left=0;right=0;bottom=0;" vertex="1" parent="B39e2irpNSdgIR0bb-Y_-1">
          <mxGeometry y="205" width="214" height="45" as="geometry" />
        </mxCell>
        <mxCell id="B39e2irpNSdgIR0bb-Y_-19" value="string" style="shape=partialRectangle;connectable=0;fillColor=none;top=0;left=0;bottom=0;right=0;align=left;spacingLeft=2;overflow=hidden;fontSize=11;" vertex="1" parent="B39e2irpNSdgIR0bb-Y_-18">
          <mxGeometry width="36" height="45" as="geometry">
            <mxRectangle width="36" height="45" as="alternateBounds" />
          </mxGeometry>
        </mxCell>
        <mxCell id="B39e2irpNSdgIR0bb-Y_-20" value="ContraseÃ±a" style="shape=partialRectangle;connectable=0;fillColor=none;top=0;left=0;bottom=0;right=0;align=left;spacingLeft=2;overflow=hidden;fontSize=11;" vertex="1" parent="B39e2irpNSdgIR0bb-Y_-18">
          <mxGeometry x="36" width="156" height="45" as="geometry">
            <mxRectangle width="156" height="45" as="alternateBounds" />
          </mxGeometry>
        </mxCell>
        <mxCell id="B39e2irpNSdgIR0bb-Y_-21" value="" style="shape=partialRectangle;connectable=0;fillColor=none;top=0;left=0;bottom=0;right=0;align=left;spacingLeft=2;overflow=hidden;fontSize=11;" vertex="1" parent="B39e2irpNSdgIR0bb-Y_-18">
          <mxGeometry x="192" width="22" height="45" as="geometry">
            <mxRectangle width="22" height="45" as="alternateBounds" />
          </mxGeometry>
        </mxCell>
        <mxCell id="B39e2irpNSdgIR0bb-Y_-22" style="shape=tableRow;horizontal=0;startSize=0;swimlaneHead=0;swimlaneBody=0;fillColor=none;collapsible=0;dropTarget=0;points=[[0,0.5],[1,0.5]];portConstraint=eastwest;top=0;left=0;right=0;bottom=0;" vertex="1" parent="B39e2irpNSdgIR0bb-Y_-1">
          <mxGeometry y="250" width="214" height="45" as="geometry" />
        </mxCell>
        <mxCell id="B39e2irpNSdgIR0bb-Y_-23" value="bool" style="shape=partialRectangle;connectable=0;fillColor=none;top=0;left=0;bottom=0;right=0;align=left;spacingLeft=2;overflow=hidden;fontSize=11;" vertex="1" parent="B39e2irpNSdgIR0bb-Y_-22">
          <mxGeometry width="36" height="45" as="geometry">
            <mxRectangle width="36" height="45" as="alternateBounds" />
          </mxGeometry>
        </mxCell>
        <mxCell id="B39e2irpNSdgIR0bb-Y_-24" value="Estado" style="shape=partialRectangle;connectable=0;fillColor=none;top=0;left=0;bottom=0;right=0;align=left;spacingLeft=2;overflow=hidden;fontSize=11;" vertex="1" parent="B39e2irpNSdgIR0bb-Y_-22">
          <mxGeometry x="36" width="156" height="45" as="geometry">
            <mxRectangle width="156" height="45" as="alternateBounds" />
          </mxGeometry>
        </mxCell>
        <mxCell id="B39e2irpNSdgIR0bb-Y_-25" value="" style="shape=partialRectangle;connectable=0;fillColor=none;top=0;left=0;bottom=0;right=0;align=left;spacingLeft=2;overflow=hidden;fontSize=11;" vertex="1" parent="B39e2irpNSdgIR0bb-Y_-22">
          <mxGeometry x="192" width="22" height="45" as="geometry">
            <mxRectangle width="22" height="45" as="alternateBounds" />
          </mxGeometry>
        </mxCell>
        <mxCell id="B39e2irpNSdgIR0bb-Y_-26" style="shape=tableRow;horizontal=0;startSize=0;swimlaneHead=0;swimlaneBody=0;fillColor=none;collapsible=0;dropTarget=0;points=[[0,0.5],[1,0.5]];portConstraint=eastwest;top=0;left=0;right=0;bottom=0;" vertex="1" parent="B39e2irpNSdgIR0bb-Y_-1">
          <mxGeometry y="295" width="214" height="45" as="geometry" />
        </mxCell>
        <mxCell id="B39e2irpNSdgIR0bb-Y_-27" value="string" style="shape=partialRectangle;connectable=0;fillColor=none;top=0;left=0;bottom=0;right=0;align=left;spacingLeft=2;overflow=hidden;fontSize=11;" vertex="1" parent="B39e2irpNSdgIR0bb-Y_-26">
          <mxGeometry width="36" height="45" as="geometry">
            <mxRectangle width="36" height="45" as="alternateBounds" />
          </mxGeometry>
        </mxCell>
        <mxCell id="B39e2irpNSdgIR0bb-Y_-28" value="Permisos" style="shape=partialRectangle;connectable=0;fillColor=none;top=0;left=0;bottom=0;right=0;align=left;spacingLeft=2;overflow=hidden;fontSize=11;" vertex="1" parent="B39e2irpNSdgIR0bb-Y_-26">
          <mxGeometry x="36" width="156" height="45" as="geometry">
            <mxRectangle width="156" height="45" as="alternateBounds" />
          </mxGeometry>
        </mxCell>
        <mxCell id="B39e2irpNSdgIR0bb-Y_-29" value="" style="shape=partialRectangle;connectable=0;fillColor=none;top=0;left=0;bottom=0;right=0;align=left;spacingLeft=2;overflow=hidden;fontSize=11;" vertex="1" parent="B39e2irpNSdgIR0bb-Y_-26">
          <mxGeometry x="192" width="22" height="45" as="geometry">
            <mxRectangle width="22" height="45" as="alternateBounds" />
          </mxGeometry>
        </mxCell>
        <mxCell id="B39e2irpNSdgIR0bb-Y_-30" value="BERol391IAU" style="shape=table;startSize=25;container=1;collapsible=0;childLayout=tableLayout;fixedRows=1;rowLines=1;fontStyle=1;align=center;resizeLast=1;" vertex="1" parent="1">
          <mxGeometry x="480" y="105" width="196" height="172" as="geometry" />
        </mxCell>
        <mxCell id="B39e2irpNSdgIR0bb-Y_-31" style="shape=tableRow;horizontal=0;startSize=0;swimlaneHead=0;swimlaneBody=0;fillColor=none;collapsible=0;dropTarget=0;points=[[0,0.5],[1,0.5]];portConstraint=eastwest;top=0;left=0;right=0;bottom=0;" vertex="1" parent="B39e2irpNSdgIR0bb-Y_-30">
          <mxGeometry y="25" width="196" height="49" as="geometry" />
        </mxCell>
        <mxCell id="B39e2irpNSdgIR0bb-Y_-32" value="int" style="shape=partialRectangle;connectable=0;fillColor=none;top=0;left=0;bottom=0;right=0;align=left;spacingLeft=2;overflow=hidden;fontSize=11;" vertex="1" parent="B39e2irpNSdgIR0bb-Y_-31">
          <mxGeometry width="36" height="49" as="geometry">
            <mxRectangle width="36" height="49" as="alternateBounds" />
          </mxGeometry>
        </mxCell>
        <mxCell id="B39e2irpNSdgIR0bb-Y_-33" value="IDRol" style="shape=partialRectangle;connectable=0;fillColor=none;top=0;left=0;bottom=0;right=0;align=left;spacingLeft=2;overflow=hidden;fontSize=11;" vertex="1" parent="B39e2irpNSdgIR0bb-Y_-31">
          <mxGeometry x="36" width="138" height="49" as="geometry">
            <mxRectangle width="138" height="49" as="alternateBounds" />
          </mxGeometry>
        </mxCell>
        <mxCell id="B39e2irpNSdgIR0bb-Y_-34" value="PK" style="shape=partialRectangle;connectable=0;fillColor=none;top=0;left=0;bottom=0;right=0;align=left;spacingLeft=2;overflow=hidden;fontSize=11;" vertex="1" parent="B39e2irpNSdgIR0bb-Y_-31">
          <mxGeometry x="174" width="22" height="49" as="geometry">
            <mxRectangle width="22" height="49" as="alternateBounds" />
          </mxGeometry>
        </mxCell>
        <mxCell id="B39e2irpNSdgIR0bb-Y_-35" style="shape=tableRow;horizontal=0;startSize=0;swimlaneHead=0;swimlaneBody=0;fillColor=none;collapsible=0;dropTarget=0;points=[[0,0.5],[1,0.5]];portConstraint=eastwest;top=0;left=0;right=0;bottom=0;" vertex="1" parent="B39e2irpNSdgIR0bb-Y_-30">
          <mxGeometry y="74" width="196" height="49" as="geometry" />
        </mxCell>
        <mxCell id="B39e2irpNSdgIR0bb-Y_-36" value="string" style="shape=partialRectangle;connectable=0;fillColor=none;top=0;left=0;bottom=0;right=0;align=left;spacingLeft=2;overflow=hidden;fontSize=11;" vertex="1" parent="B39e2irpNSdgIR0bb-Y_-35">
          <mxGeometry width="36" height="49" as="geometry">
            <mxRectangle width="36" height="49" as="alternateBounds" />
          </mxGeometry>
        </mxCell>
        <mxCell id="B39e2irpNSdgIR0bb-Y_-37" value="Nombre" style="shape=partialRectangle;connectable=0;fillColor=none;top=0;left=0;bottom=0;right=0;align=left;spacingLeft=2;overflow=hidden;fontSize=11;" vertex="1" parent="B39e2irpNSdgIR0bb-Y_-35">
          <mxGeometry x="36" width="138" height="49" as="geometry">
            <mxRectangle width="138" height="49" as="alternateBounds" />
          </mxGeometry>
        </mxCell>
        <mxCell id="B39e2irpNSdgIR0bb-Y_-38" value="" style="shape=partialRectangle;connectable=0;fillColor=none;top=0;left=0;bottom=0;right=0;align=left;spacingLeft=2;overflow=hidden;fontSize=11;" vertex="1" parent="B39e2irpNSdgIR0bb-Y_-35">
          <mxGeometry x="174" width="22" height="49" as="geometry">
            <mxRectangle width="22" height="49" as="alternateBounds" />
          </mxGeometry>
        </mxCell>
        <mxCell id="B39e2irpNSdgIR0bb-Y_-39" style="shape=tableRow;horizontal=0;startSize=0;swimlaneHead=0;swimlaneBody=0;fillColor=none;collapsible=0;dropTarget=0;points=[[0,0.5],[1,0.5]];portConstraint=eastwest;top=0;left=0;right=0;bottom=0;" vertex="1" parent="B39e2irpNSdgIR0bb-Y_-30">
          <mxGeometry y="123" width="196" height="49" as="geometry" />
        </mxCell>
        <mxCell id="B39e2irpNSdgIR0bb-Y_-40" value="string" style="shape=partialRectangle;connectable=0;fillColor=none;top=0;left=0;bottom=0;right=0;align=left;spacingLeft=2;overflow=hidden;fontSize=11;" vertex="1" parent="B39e2irpNSdgIR0bb-Y_-39">
          <mxGeometry width="36" height="49" as="geometry">
            <mxRectangle width="36" height="49" as="alternateBounds" />
          </mxGeometry>
        </mxCell>
        <mxCell id="B39e2irpNSdgIR0bb-Y_-41" value="Permisos" style="shape=partialRectangle;connectable=0;fillColor=none;top=0;left=0;bottom=0;right=0;align=left;spacingLeft=2;overflow=hidden;fontSize=11;" vertex="1" parent="B39e2irpNSdgIR0bb-Y_-39">
          <mxGeometry x="36" width="138" height="49" as="geometry">
            <mxRectangle width="138" height="49" as="alternateBounds" />
          </mxGeometry>
        </mxCell>
        <mxCell id="B39e2irpNSdgIR0bb-Y_-42" value="" style="shape=partialRectangle;connectable=0;fillColor=none;top=0;left=0;bottom=0;right=0;align=left;spacingLeft=2;overflow=hidden;fontSize=11;" vertex="1" parent="B39e2irpNSdgIR0bb-Y_-39">
          <mxGeometry x="174" width="22" height="49" as="geometry">
            <mxRectangle width="22" height="49" as="alternateBounds" />
          </mxGeometry>
        </mxCell>
        <mxCell id="B39e2irpNSdgIR0bb-Y_-54" style="edgeStyle=orthogonalEdgeStyle;rounded=0;orthogonalLoop=1;jettySize=auto;html=1;endArrow=ERmandOne;endFill=0;startArrow=ERzeroToMany;startFill=0;" edge="1" parent="1" source="B39e2irpNSdgIR0bb-Y_-43" target="B39e2irpNSdgIR0bb-Y_-1">
          <mxGeometry relative="1" as="geometry" />
        </mxCell>
        <mxCell id="B39e2irpNSdgIR0bb-Y_-55" style="edgeStyle=orthogonalEdgeStyle;rounded=0;orthogonalLoop=1;jettySize=auto;html=1;endArrow=ERmandOne;endFill=0;startArrow=ERzeroToMany;startFill=0;" edge="1" parent="1" source="B39e2irpNSdgIR0bb-Y_-43" target="B39e2irpNSdgIR0bb-Y_-30">
          <mxGeometry relative="1" as="geometry" />
        </mxCell>
        <mxCell id="B39e2irpNSdgIR0bb-Y_-43" value="UsuarioRol" style="shape=table;startSize=25;container=1;collapsible=0;childLayout=tableLayout;fixedRows=1;rowLines=1;fontStyle=1;align=center;resizeLast=1;" vertex="1" parent="1">
          <mxGeometry x="276" y="126.5" width="149" height="129" as="geometry" />
        </mxCell>
        <mxCell id="B39e2irpNSdgIR0bb-Y_-44" style="shape=tableRow;horizontal=0;startSize=0;swimlaneHead=0;swimlaneBody=0;fillColor=none;collapsible=0;dropTarget=0;points=[[0,0.5],[1,0.5]];portConstraint=eastwest;top=0;left=0;right=0;bottom=0;" vertex="1" parent="B39e2irpNSdgIR0bb-Y_-43">
          <mxGeometry y="25" width="149" height="52" as="geometry" />
        </mxCell>
        <mxCell id="B39e2irpNSdgIR0bb-Y_-45" value="int" style="shape=partialRectangle;connectable=0;fillColor=none;top=0;left=0;bottom=0;right=0;align=left;spacingLeft=2;overflow=hidden;fontSize=11;" vertex="1" parent="B39e2irpNSdgIR0bb-Y_-44">
          <mxGeometry width="18" height="52" as="geometry">
            <mxRectangle width="18" height="52" as="alternateBounds" />
          </mxGeometry>
        </mxCell>
        <mxCell id="B39e2irpNSdgIR0bb-Y_-46" value="DNI" style="shape=partialRectangle;connectable=0;fillColor=none;top=0;left=0;bottom=0;right=0;align=left;spacingLeft=2;overflow=hidden;fontSize=11;" vertex="1" parent="B39e2irpNSdgIR0bb-Y_-44">
          <mxGeometry x="18" width="109" height="52" as="geometry">
            <mxRectangle width="109" height="52" as="alternateBounds" />
          </mxGeometry>
        </mxCell>
        <mxCell id="B39e2irpNSdgIR0bb-Y_-47" value="FK" style="shape=partialRectangle;connectable=0;fillColor=none;top=0;left=0;bottom=0;right=0;align=left;spacingLeft=2;overflow=hidden;fontSize=11;" vertex="1" parent="B39e2irpNSdgIR0bb-Y_-44">
          <mxGeometry x="127" width="22" height="52" as="geometry">
            <mxRectangle width="22" height="52" as="alternateBounds" />
          </mxGeometry>
        </mxCell>
        <mxCell id="B39e2irpNSdgIR0bb-Y_-48" style="shape=tableRow;horizontal=0;startSize=0;swimlaneHead=0;swimlaneBody=0;fillColor=none;collapsible=0;dropTarget=0;points=[[0,0.5],[1,0.5]];portConstraint=eastwest;top=0;left=0;right=0;bottom=0;" vertex="1" parent="B39e2irpNSdgIR0bb-Y_-43">
          <mxGeometry y="77" width="149" height="52" as="geometry" />
        </mxCell>
        <mxCell id="B39e2irpNSdgIR0bb-Y_-49" value="int" style="shape=partialRectangle;connectable=0;fillColor=none;top=0;left=0;bottom=0;right=0;align=left;spacingLeft=2;overflow=hidden;fontSize=11;" vertex="1" parent="B39e2irpNSdgIR0bb-Y_-48">
          <mxGeometry width="18" height="52" as="geometry">
            <mxRectangle width="18" height="52" as="alternateBounds" />
          </mxGeometry>
        </mxCell>
        <mxCell id="B39e2irpNSdgIR0bb-Y_-50" value="IDRol" style="shape=partialRectangle;connectable=0;fillColor=none;top=0;left=0;bottom=0;right=0;align=left;spacingLeft=2;overflow=hidden;fontSize=11;" vertex="1" parent="B39e2irpNSdgIR0bb-Y_-48">
          <mxGeometry x="18" width="109" height="52" as="geometry">
            <mxRectangle width="109" height="52" as="alternateBounds" />
          </mxGeometry>
        </mxCell>
        <mxCell id="B39e2irpNSdgIR0bb-Y_-51" value="FK" style="shape=partialRectangle;connectable=0;fillColor=none;top=0;left=0;bottom=0;right=0;align=left;spacingLeft=2;overflow=hidden;fontSize=11;" vertex="1" parent="B39e2irpNSdgIR0bb-Y_-48">
          <mxGeometry x="127" width="22" height="52" as="geometry">
            <mxRectangle width="22" height="52" as="alternateBounds" />
          </mxGeometry>
        </mxCell>
      </root>
    </mxGraphModel>
  </diagram>
</mxfile>
